<svg width="92" height="115" viewBox="0 0 92 115" xmlns="http://www.w3.org/2000/svg" xmlns:xlink="http://www.w3.org/1999/xlink"><title>Logo Copy</title><defs><linearGradient x1="50%" y1="0%" x2="50%" y2="100%" id="e"><stop stop-color="#329FC5" offset="0%"/><stop stop-color="#057FE0" offset="100%"/></linearGradient><linearGradient x1="50%" y1="0%" x2="50%" y2="100%" id="d"><stop stop-color="#FFF" offset="0%"/><stop stop-color="#727272" offset="100%"/></linearGradient><linearGradient x1="50%" y1="0%" x2="50%" y2="100%" id="f"><stop stop-color="#0483DB" offset="0%"/><stop stop-color="#024CB4" offset="100%"/></linearGradient><path id="a" d="M0 26.929h3.259v3.018H0z"/><mask id="g" x="0" y="0" width="3.259" height="3.018" fill="#fff"><use xlink:href="#a"/></mask><path id="b" d="M0 .232h3.259V3.25H0z"/><mask id="h" x="0" y="0" width="3.259" height="3.018" fill="#fff"><use xlink:href="#b"/></mask><path id="c" d="M0 0h66.916v10.506H0z"/><mask id="i" x="0" y="0" width="66.916" height="10.506" fill="#fff"><use xlink:href="#c"/></mask></defs><g fill="none" fill-rule="evenodd"><path d="M38.658 85.429h-4.457v-2.248h-2.277v-2.252h-2.268v-2.244h-4.521v-2.251h-2.256v-4.48h-2.25v-2.262h-4.518v-4.496h-2.257V60.7h-2.258v-2.25H9.362v-4.496H7.097V49.46h-2.25v-6.762l-2.28.018v-6.748H.14V11.284H0l7.097-.043-.015-2.248h2.257V6.744h2.257V4.496h6.773V2.248h9.03V0h11.259v85.429z" stroke="url(#d)" stroke-width="3.293" fill="url(#e)" transform="translate(6.509 4.219)"/><path d="M40.149 85.429h4.542v-2.248h2.257v-2.253h2.257v-2.243h4.515v-2.249h2.258v-4.482h2.257v-2.262h4.515v-4.496h2.257V60.7h2.258v-2.25h2.257v-4.496h2.257V49.46h2.258v-6.744h2.257v-6.748h2.258V11.241h-6.773V8.993h-2.257V6.744h-2.257V4.496h-6.773V2.248h-9.03V0H40.15v85.429z" fill="url(#f)" transform="translate(6.509 4.219)"/><path fill="#CECECE" d="M6.509 36.255h78.573v3.386H6.509z"/><path d="M38.658 85.429h-4.457v-2.248h-2.277v-2.252h-2.268v-2.244h-4.521v-2.251h-2.256v-4.48h-2.25v-2.262h-4.518v-4.496h-2.257V60.7h-2.258v-2.25H9.362v-4.496H7.097V49.46h-2.25v-6.762l-2.28.018v-6.748H.14V11.284H0l7.097-.043-.015-2.248h2.257V6.744h2.257V4.496h6.773V2.248h9.03V0h11.259v85.429zm1.491 0h4.542v-2.248h2.257v-2.253h2.257v-2.243h4.515v-2.249h2.258v-4.482h2.257v-2.262h4.515v-4.496h2.257V60.7h2.258v-2.25h2.257v-4.496h2.257V49.46h2.258v-6.744h2.257v-6.748h2.258V11.241h-6.773V8.993h-2.257V6.744h-2.257V4.496h-6.773V2.248h-9.03V0H40.15v85.429z" stroke="url(#d)" stroke-width="3.293" transform="translate(6.509 4.219)"/><g fill="#393433"><path d="M87.585.955h2.992v18.101h-5.983V6.99H72.628V.955h14.957z"/><path d="M72.629 13.023V6.989h-5.983v6.034zm-5.983 6.033v-6.034h-5.983v6.034zm-5.983 6.034v-6.034H54.68v6.034zm-5.983 6.034V25.09h-5.982v6.034zm-5.982 6.034v-6.034h-5.983v6.034zm-5.983 6.032v-6.033h-5.983v6.034z"/><path d="M36.733 49.225V43.19H30.75v6.034zm-5.983 6.034v-6.034h-5.983v6.034z"/></g><g fill="#696969"><path d="M60.663 31.124V25.09H54.68v6.034zm5.983-6.034v-6.034h-5.983v6.034zm5.982-6.034v-6.034h-5.983v6.034zm5.983-6.033V6.989h-5.983v6.034zM36.732 55.259v-6.034H30.75v6.034zm5.983-6.034V43.19h-5.983v6.034z"/><path d="M48.697 43.19v-6.033h-5.983v6.034zm5.983-6.032v-6.034h-5.983v6.034z"/></g><g fill="#4B4545"><path d="M66.646 31.124V25.09h-5.983v6.034zm5.983-6.034v-6.034h-5.983v6.034zm5.981-6.034v-6.034h-5.982v6.034zm5.984-6.033V6.989H78.61v6.034zM42.715 55.259v-6.034h-5.983v6.034zm5.983-6.034V43.19h-5.983v6.034z"/><path d="M54.68 43.19v-6.033h-5.983v6.034zm5.983-6.032v-6.034H54.68v6.034z"/></g><path d="M72.629 31.124V25.09h-5.983v6.034zm5.981-6.034v-6.034h-5.982v6.034zm5.984-6.033v-6.034H78.61v6.034zM66.646 37.158v-6.034h-5.983v6.034zm-5.983 6.034v-6.034H54.68v6.034zm-5.983 6.033V43.19h-5.983v6.034zm-5.982 6.034v-6.034h-5.983v6.034zm-5.983 6.034v-6.034h-5.983v6.034z" fill="#696969"/><path d="M84.593 25.09v-6.034H78.61v6.034zm-5.982 6.033V25.09h-5.983v6.034zm-5.983 6.034v-6.034h-5.983v6.034zm-5.983 6.034v-6.034h-5.983v6.034zm-5.982 6.034v-6.034H54.68v6.034zm-5.983 6.033v-6.034h-5.983v6.034zm-5.983 6.034v-6.034h-5.983v6.034zm-5.983 6.034v-6.034h-5.983v6.034z" fill="#393433"/><path fill="#1676AF" d="M25.168 73.398v-6.034h-5.983v6.034z"/><path d="M7.22 85.465v-6.034H1.237V91.5h11.966v-6.034H7.22z" fill="#0065A1"/><path fill="#1576AF" d="M19.186 79.43v-6.033h-5.983v6.034zm-5.983 6.035V79.43H7.22v6.034z"/><path fill="#34A1E0" d="M37.134 75.208V66.76H25.169v8.447zm7.179.602v-6.033h-3.59v6.034z"/><path fill="#34A1E0" d="M41.322 78.828V72.19h-8.974v6.637z"/><path fill="#34A1E0" d="M38.929 72.794v-3.017h-6.581v3.017zm-13.162-5.43V55.296h-8.974v12.068zM20.382 54.09v-3.017H13.8v3.017z"/><path fill="#34A1E0" d="M22.775 51.676v-3.62h-5.983v3.62zm0 8.447v-6.637H13.8v6.637z"/><path fill="#1B1B1B" d="M21.579 58.313v-3.62h-3.59v3.62z"/><path fill="#666" d="M20.382 57.107V55.9h-1.197v1.207z"/><path fill="#1B1B1B" d="M37.732 74.604v-3.62h-3.59v3.62z"/><path fill="#666" d="M36.535 73.398V72.19h-1.197v1.207z"/><path fill="#4C4646" d="M37.067 61.292v-6.034h-5.983v6.034z"/><path fill="#35A0E0" d="M37.067 67.326v-6.034h-5.983v6.034zm-5.983-6.034v-6.034H25.1v6.034z"/><path fill="#154240" d="M31.084 67.326v-6.034H25.1v6.034z"/><path fill="#BC3F65" d="M31.084 67.326V64.31h-2.991v3.017z"/><path fill-opacity=".87" fill="#BF3F64" d="M31.084 64.31v-3.018h-2.991v3.017z"/><path fill="#971B2A" d="M28.118 64.31v-3.018h-2.991v3.017z"/><path fill="#C42727" d="M28.118 67.326V64.31h-2.991v3.017z"/><g fill="#393433"><path d="M4.26.955H1.27v18.101h5.982V6.99h11.966V.955H4.26z"/><path d="M19.217 13.023V6.989H25.2v6.034zm5.983 6.033v-6.034h5.983v6.034zm5.983 6.034v-6.034h5.983v6.034zm5.982 6.034V25.09h5.983v6.034zm5.983 6.034v-6.034h5.983v6.034zm5.983 6.032v-6.033h5.983v6.034z"/><path d="M55.113 49.225V43.19h5.983v6.034zm5.983 6.034v-6.034h5.983v6.034z"/></g><g fill="#696969"><path d="M31.183 31.124V25.09h5.983v6.034zM25.2 25.09v-6.034h5.983v6.034zm-5.982-6.034v-6.034H25.2v6.034zm-5.983-6.033V6.989h5.983v6.034zm41.879 42.236v-6.034h5.983v6.034zm-5.984-6.034V43.19h5.984v6.034z"/><path d="M43.149 43.19v-6.033h5.983v6.034zm-5.983-6.032v-6.034h5.983v6.034z"/></g><g fill="#4B4545"><path d="M25.2 31.124V25.09h5.983v6.034zm-5.983-6.034v-6.034H25.2v6.034zm-5.982-6.034v-6.034h5.983v6.034zm-5.983-6.033V6.989h5.983v6.034zm41.879 42.236v-6.034h5.983v6.034zm-5.983-6.034V43.19h5.983v6.034z"/><path d="M37.166 43.19v-6.033h5.983v6.034zm-5.983-6.032v-6.034h5.983v6.034z"/></g><path d="M19.217 31.124V25.09H25.2v6.034zm-5.982-6.034v-6.034h5.983v6.034zm-5.983-6.033v-6.034h5.983v6.034zM25.2 37.158v-6.034h5.983v6.034zm5.983 6.034v-6.034h5.983v6.034zm5.983 6.033V43.19h5.983v6.034zm5.982 6.034v-6.034h5.983v6.034zm5.983 6.034v-6.034h5.983v6.034z" fill="#696969"/><path d="M7.252 25.09v-6.034h5.983v6.034zm5.982 6.033V25.09h5.983v6.034zm5.983 6.034v-6.034H25.2v6.034zm5.983 6.034v-6.034h5.983v6.034zm5.982 6.034v-6.034h5.983v6.034zm5.983 6.033v-6.034h5.983v6.034zm5.983 6.034v-6.034h5.983v6.034zm5.983 6.034v-6.034h5.983v6.034z" fill="#393433"/><path fill="#1676AF" d="M66.678 73.398v-6.034h5.983v6.034z"/><path d="M84.626 85.465v-6.034h5.983V91.5H78.643v-6.034h5.983z" fill="#0065A1"/><path fill="#1576AF" d="M72.66 79.43v-6.033h5.983v6.034zm5.983 6.035V79.43h5.983v6.034z"/><path fill="#34A1E0" d="M54.712 75.208V66.76h11.965v8.447zm-7.179.602v-6.033h3.59v6.034z"/><path fill="#34A1E0" d="M50.524 78.828V72.19h8.974v6.637z"/><path fill="#34A1E0" d="M52.917 72.794v-3.017h6.581v3.017zm13.163-5.43V55.296h8.973v12.068zm5.384-13.274v-3.017h6.581v3.017z"/><path fill="#34A1E0" d="M69.071 51.676v-3.62h5.983v3.62zm0 8.447v-6.637h8.974v6.637z"/><path fill="#1B1B1B" d="M70.267 58.313v-3.62h3.59v3.62z"/><path fill="#666" d="M71.464 57.107V55.9h1.197v1.207z"/><path fill="#1B1B1B" d="M54.114 74.604v-3.62h3.59v3.62z"/><path fill="#666" d="M55.311 73.398V72.19h1.197v1.207z"/><path fill="#4C4646" d="M54.78 61.292v-6.034h5.982v6.034z"/><path fill="#35A0E0" d="M54.78 67.326v-6.034h5.982v6.034zm5.982-6.034v-6.034h5.983v6.034z"/><path fill="#154240" d="M60.762 67.326v-6.034h5.983v6.034z"/><path fill="#BC3F65" d="M60.762 67.326V64.31h2.991v3.017z"/><path fill-opacity=".87" fill="#BF3F64" d="M60.762 64.31v-3.018h2.991v3.017z"/><path fill="#971B2A" d="M63.728 64.31v-3.018h2.991v3.017z"/><path fill="#C42727" d="M63.728 67.326V64.31h2.991v3.017z"/><path d="M69.88 12.193h-.63v.312h.63v.631h.313v-.63h.63v-.313h-.63v-.63h-.312v.63z" fill="#FDED1C"/><path fill="#B6B5B5" d="M70.194 11.881h.317v.315h-.317zm-.629 0h.317v.315h-.317zm0 .624h.317v.315h-.317zm.629 0h.317v.315h-.317zm.63-.312h.317v.315h-.317zm-1.889 0h.317v.315h-.317zm.944-.936h.317v.315h-.317zm0 1.873h.317v.314h-.317z"/><path d="M77.015 18.538h-.491v.243h.49v.49h.243v-.49h.491v-.243h-.49v-.49h-.243v.49z" fill="#FDED1C"/><path fill="#B6B5B5" d="M77.258 18.295h.31v.309h-.31zm-.488 0h.31v.309h-.31zm0 .485h.31v.31h-.31zm.488 0h.31v.31h-.31zm.49-.242h.31v.309h-.31zm-1.468 0h.31v.309h-.31zm.733-.728h.31v.309h-.31zm0 1.456h.31v.309h-.31z"/><path d="M76.91 12.61H76v.45h.91v.911h.451v-.911h.912v-.45h-.912v-.912h-.45v.911z" fill="#FDED1C"/><path fill="#B6B5B5" d="M77.364 12.158h.455v.451h-.455zm-.91 0h.455v.451h-.455zm0 .902h.455v.451h-.455zm.91 0h.455v.451h-.455zm.909-.45h.455v.45h-.455zm-2.728 0H76v.45h-.455zm1.364-1.353h.455v.451h-.455zm0 2.704h.455v.451h-.455z"/><path d="M21.72 12.193h.631v.312h-.63v.631h-.312v-.63h-.631v-.313h.63v-.63h.313v.63z" fill="#FDED1C"/><path fill="#B6B5B5" d="M21.407 11.881h-.317v.315h.317zm.629 0h-.317v.315h.317zm0 .624h-.317v.315h.317zm-.629 0h-.317v.315h.317zm-.63-.312h-.317v.315h.317zm1.889 0h-.317v.315h.317zm-.944-.936h-.317v.315h.317zm0 1.873h-.317v.314h.317z"/><path d="M14.586 18.538h.491v.243h-.49v.49h-.243v-.49h-.49v-.243h.49v-.49h.242v.49z" fill="#FDED1C"/><path fill="#B6B5B5" d="M14.343 18.295h-.31v.309h.31zm.489 0h-.31v.309h.31zm0 .485h-.31v.31h.31zm-.489 0h-.31v.31h.31zm-.49-.242h-.31v.309h.31zm1.469 0h-.31v.309h.31zm-.734-.728h-.31v.309h.31zm0 1.456h-.31v.309h.31z"/><path d="M14.69 12.61h.912v.45h-.912v.911h-.45v-.911h-.912v-.45h.912v-.912h.45v.911z" fill="#FDED1C"/><path fill="#B6B5B5" d="M14.237 12.158h-.455v.451h.455zm.91 0h-.455v.451h.455zm0 .902h-.455v.451h.455zm-.91 0h-.455v.451h.455zm-.909-.45h-.455v.45h.455zm2.728 0h-.455v.45h.455zm-1.364-1.353h-.455v.451h.455zm0 2.704h-.455v.451h.455z"/><g transform="translate(18.982 15.383)" stroke="#FFF"><path d="M14.89 31.804H.233V1.857H14.89v6.118H6.193v5.785h8.697v6.117H6.193v5.785h8.697v6.142zm9.126.232H17.89V19.943h2.98v-5.785h-2.98V2.09h6.127v11.903h5.794V2.089h6.127v12.07h-2.98v5.784h2.98v12.093H29.81V20.11h-5.794v11.926zM44.878 7.975v5.785h5.794V7.975h-5.794zm0 23.829h-6.127V1.857h15.068v2.976h2.98v12.069h-2.98v2.975h-8.941v11.927zm8.94-29.947h2.98v2.976h-2.98V1.857z" stroke-width=".5" fill="#0394E9"/><use mask="url(#g)" fill="#01D5D8" xlink:href="#a"/><use mask="url(#h)" fill="#01D5D8" xlink:href="#b"/><path d="M15.07 29.947H3.1v-2.834H0V2.853h3.1V0h11.97v6.118H6.128v5.784h8.943v6.118H6.127v5.785h8.942v6.142zm8.942 0h-6.128V17.854h2.98v-5.785h-2.98V0h6.128v11.902h5.794V0h6.128v12.07h-2.98v5.784h2.98v12.093h-6.128V18.02h-5.794v11.927zm20.864-23.83v5.785h5.795V6.118h-5.795zm0 23.83h-6.128V0h15.07v2.976h2.98v12.069h-2.98v2.975h-8.942v11.927z" stroke-width=".98" fill="#01D5D8"/></g><path d="M20.71 55.453v3.286h1.574v-3.286h-1.575zm0 10.047h3.242v-3.286h-3.243V65.5zm-3.43 3.49V51.976h8.433v8.452h1.668v8.56h-10.1zm15.104-3.49h3.242V55.453h-3.242V65.5zm-1.761 3.721v-1.703h-1.668V53.9h1.668v-1.69h6.764v1.69h1.668v13.618h-1.668v1.703h-6.764zm13.436-.232h-3.43V51.977h10.1V68.99h-3.428V55.453h-3.242v13.536zm9.913 0v-1.704h-1.668V51.977h3.43V65.5h3.242V51.977h3.429v15.308h-1.668v1.704h-6.765zm18.207 0h-8.433V65.5h6.671v-3.286h-5.003v-1.69h-1.668v-6.856h1.668v-1.69h8.432v3.475h-6.67v3.286h5.003v1.69h1.667v6.856H72.18v1.704z" fill="#0394E9"/><path d="M20.71 54.292v3.286h1.574v-3.286h-1.575zm0 10.048h3.242v-3.286h-3.243v3.286zm-3.43 3.489V50.817h8.433v8.451h1.668v8.56h-10.1zm15.104-3.49h3.242V54.293h-3.242V64.34zm-1.761 3.49v-1.704h-1.668V52.507h1.668v-1.69h6.764v1.69h1.668v13.618h-1.668v1.704h-6.764zm13.436 0h-3.43V50.817h10.1v17.012h-3.428V54.292h-3.242v13.537zm9.913 0v-1.704h-1.668V50.817h3.43V64.34h3.242V50.817h3.429v15.308h-1.668v1.704h-6.765zm18.44 0h-8.433v-3.49h6.671v-3.285h-5.003v-1.69h-1.668v-6.857h1.668v-1.69h8.432v3.475h-6.671v3.286h5.003v1.69h1.668v6.857h-1.668v1.704z" stroke="#FFF" stroke-width=".98" fill="#01D5D8"/><g transform="translate(24.274 103.553)"><use stroke="#000" mask="url(#i)" stroke-width="2" fill="#3D3D3D" xlink:href="#c"/><rect fill="#847E87" x=".769" y="1.313" width="65.378" height="1.313" rx=".657"/><path fill="#595652" d="M.769 5.91h65.378v3.283H.769z"/><path fill="#847E87" d="M.769 7.88h65.378v.657H.769z"/></g><g transform="translate(24.93 104.21)"><path fill="#6ABE30" d="M0 0h57.076v9.193H0z"/><path fill="#99E550" d="M.656 0H56.42v2.627H.656z"/><rect fill="#FBF236" x=".656" y=".657" width="55.764" height="1.313" rx=".657"/><path fill="#4B692E" d="M.656 5.253H56.42v3.283H.656zm0-1.313h1.312v1.313H.656z"/></g><path d="M8.529 111.433v-1.313H7.216v-1.314H8.53v-1.313h1.31v-2.626H7.216v1.313H5.904v1.313H4.592v-1.313H3.28v-1.313H.656v2.626h1.312v1.313H3.28v1.314H1.968v1.313H.656v2.626H3.28v-1.313h1.312v-1.313h1.312v1.313h1.312v1.313h2.625v-2.626H8.529zm1.968-6.566h2.624v9.192h-2.624v-9.192zm6.56 1.313h2.624v3.94h-2.624v-3.94zm-3.936-1.313h5.248v1.313h-5.248v-1.313zm0 5.253h5.248v1.313h-5.248v-1.313z" fill="#FFF"/></g></svg>